# xmcd CD database file
#
# Track frame offsets:
#	150
#	25743
#	48201
#	70358
#	92695
#	114915
#	135889
#	157830
#	175394
#	194662
#	214240
#	233240
#	253225
#	266990
#	289391
#	309703
#
# Disc length: 4351 seconds
#
# Revision: 1
# Processed by: cddbd v1.5.1PL2 Copyright (c) Steve Scherf et al.
# Submitted via: CDex 1.51
#
DISCID=ec10fd10
DTITLE=Joolz Gianni - Chilled2TheSax
DYEAR=2005
DGENRE=Jazz
TTITLE0=Meditation
TTITLE1=Summertime
TTITLE2=Silver
TTITLE3=Pavane Opus. 50
TTITLE4=Almaz
TTITLE5=Air on A G String
TTITLE6=Now My Heart's Gone
TTITLE7=Moon River
TTITLE8=Ave Maria
TTITLE9=Pachebel's Cannon
TTITLE10=Promises
TTITLE11=Polovtsian Dances
TTITLE12=Gabriel's Oboe
TTITLE13=Gymnopedie No. 1
TTITLE14=Pie Jesu
TTITLE15=Stranger On The Shore
EXTD=YEAR: 2005
EXTT0=
EXTT1=
EXTT2=
EXTT3=
EXTT4=
EXTT5=
EXTT6=
EXTT7=
EXTT8=
EXTT9=
EXTT10=
EXTT11=
EXTT12=
EXTT13=
EXTT14=
EXTT15=
PLAYORDER=
